<?xml version="1.0" encoding="UTF-8" standalone="no"?>
<svg
   xmlns:dc="http://purl.org/dc/elements/1.1/"
   xmlns:cc="http://creativecommons.org/ns#"
   xmlns:rdf="http://www.w3.org/1999/02/22-rdf-syntax-ns#"
   xmlns:svg="http://www.w3.org/2000/svg"
   xmlns="http://www.w3.org/2000/svg"
   xmlns:sodipodi="http://sodipodi.sourceforge.net/DTD/sodipodi-0.dtd"
   xmlns:inkscape="http://www.inkscape.org/namespaces/inkscape"
   sodipodi:docname="Chest.svg"
   inkscape:version="1.0 (4035a4fb49, 2020-05-01)"
   id="svg6860"
   version="1.1"
   viewBox="0 0 45.379395 45.379395"
   height="45.379395mm"
   width="45.379395mm">
  <defs
     id="defs6854">
    <inkscape:path-effect
       split_items="false"
       oposite_fuse="false"
       fuse_paths="false"
       discard_orig_path="false"
       mode="free"
       lpeversion="1"
       is_visible="true"
       id="path-effect1686"
       center_point="-67.288084,116.76461"
       end_point="-67.288084,122.41394"
       start_point="-67.288084,111.11529"
       effect="mirror_symmetry" />
    <inkscape:path-effect
       split_items="false"
       oposite_fuse="false"
       fuse_paths="false"
       discard_orig_path="false"
       mode="free"
       lpeversion="1"
       is_visible="true"
       id="path-effect1629"
       center_point="-67.288084,116.76461"
       end_point="-67.288084,122.41394"
       start_point="-67.288084,111.11529"
       effect="mirror_symmetry" />
    <inkscape:path-effect
       effect="mirror_symmetry"
       start_point="-67.288084,111.11529"
       end_point="-67.288084,122.41394"
       center_point="-67.288084,116.76461"
       id="path-effect1648"
       is_visible="true"
       lpeversion="1"
       mode="free"
       discard_orig_path="false"
       fuse_paths="false"
       oposite_fuse="false"
       split_items="false" />
    <inkscape:path-effect
       effect="mirror_symmetry"
       start_point="-67.288084,111.11529"
       end_point="-67.288084,122.41394"
       center_point="-67.288084,116.76461"
       id="path-effect1667"
       is_visible="true"
       lpeversion="1"
       mode="free"
       discard_orig_path="false"
       fuse_paths="false"
       oposite_fuse="false"
       split_items="false" />
    <inkscape:path-effect
       split_items="false"
       oposite_fuse="false"
       fuse_paths="false"
       discard_orig_path="false"
       mode="free"
       lpeversion="1"
       is_visible="true"
       id="path-effect1724"
       center_point="-67.288084,116.76461"
       end_point="-67.288084,122.41394"
       start_point="-67.288084,111.11529"
       effect="mirror_symmetry" />
    <inkscape:path-effect
       split_items="false"
       oposite_fuse="false"
       fuse_paths="false"
       discard_orig_path="false"
       mode="free"
       lpeversion="1"
       is_visible="true"
       id="path-effect1733"
       center_point="-67.288084,116.76461"
       end_point="-67.288084,122.41394"
       start_point="-67.288084,111.11529"
       effect="mirror_symmetry" />
    <inkscape:path-effect
       effect="mirror_symmetry"
       start_point="-67.288084,111.11529"
       end_point="-67.288084,122.41394"
       center_point="-67.288084,116.76461"
       id="path-effect1042"
       is_visible="true"
       lpeversion="1"
       mode="free"
       discard_orig_path="false"
       fuse_paths="false"
       oposite_fuse="false"
       split_items="false" />
  </defs>
  <sodipodi:namedview
     inkscape:window-maximized="1"
     inkscape:window-y="-9"
     inkscape:window-x="-9"
     inkscape:window-height="1051"
     inkscape:window-width="1920"
     showgrid="false"
     inkscape:document-rotation="0"
     inkscape:current-layer="layer1"
     inkscape:document-units="mm"
     inkscape:cy="361.76291"
     inkscape:cx="266.08317"
     inkscape:zoom="0.7"
     inkscape:pageshadow="2"
     inkscape:pageopacity="0.0"
     borderopacity="1.0"
     bordercolor="#666666"
     pagecolor="#ffffff"
     id="base" />
  <metadata
     id="metadata6857">
    <rdf:RDF>
      <cc:Work
         rdf:about="">
        <dc:format>image/svg+xml</dc:format>
        <dc:type
           rdf:resource="http://purl.org/dc/dcmitype/StillImage" />
        <dc:title></dc:title>
      </cc:Work>
    </rdf:RDF>
  </metadata>
  <g
     id="layer1"
     inkscape:groupmode="layer"
     inkscape:label="Layer 1">
    <circle
       style="fill:#82abfe;fill-opacity:1;fill-rule:evenodd;stroke:none;stroke-width:9.99998;stroke-linecap:square;stroke-miterlimit:0;stroke-dashoffset:2.4189"
       id="path844-6-4-1"
       cx="22.689701"
       cy="22.689701"
       r="22.689701" />
    <path
       sodipodi:nodetypes="cccccscccccscccccccc"
       d="m 18.392804,5.3554774 -0.50023,2.586406 c -4.12892,-0.73071 -4.61478,2.8384206 -5.42344,2.7533196 -6.4092301,-0.674749 -7.3643901,4.799181 -7.3427101,4.755781 l 0.25063,10.01282 c 0.21738,0.38701 4.6900401,1.735909 4.33876,4.255039 -0.4726,3.389122 4.9226901,5.006422 4.9226901,5.006422 l 0.16692,6.424409 7.63396,0.104039 8.1351,-0.104039 0.16692,-6.424409 c 0,0 5.39529,-1.617311 4.92269,-5.006422 -0.35127,-2.51913 4.12138,-3.868029 4.33876,-4.255039 l 0.25011,-10.01282 c 0.0217,0.0434 -0.93295,-5.43053 -7.34219,-4.755781 -0.80865,0.0851 -1.29452,-3.4840296 -5.42344,-2.7533196 l -0.50074,-2.586406 h -2.75281 -3.08766 z"
       style="fill:#ffffff;stroke:none;stroke-width:2;stroke-linecap:round;stroke-linejoin:round;stroke-miterlimit:4;stroke-dasharray:none;stroke-opacity:1"
       id="path1523" />
    <path
       transform="matrix(1.0685884,0,0,1.0670685,94.592964,-97.028985)"
       sodipodi:nodetypes="ccc"
       inkscape:original-d="m -69.833287,124.27888 c 2.181207,0.3077 2.631421,-1.19917 2.491228,-2.44072 l 0.05398,0.57573"
       inkscape:path-effect="#path-effect1686"
       id="path1625-4-5"
       d="m -69.833287,124.27888 c 2.181207,0.3077 2.631421,-1.19917 2.491228,-2.44072 l 0.05398,0.57573 m 2.545198,1.86499 c -2.181207,0.3077 -2.631421,-1.19917 -2.491228,-2.44072 l -0.05398,0.57573"
       style="fill:none;stroke:#82abfe;stroke-width:0.93648;stroke-linecap:round;stroke-linejoin:round;stroke-miterlimit:4;stroke-dasharray:none;stroke-opacity:1" />
    <path
       transform="matrix(1.164195,0,0,1.1818285,101.02614,-125.19662)"
       sodipodi:nodetypes="csccc"
       inkscape:original-d="m -79.018518,122.73778 c -0.06895,0.69704 -0.14085,2.74391 0.427058,3.23858 1.686203,1.46875 8.419055,1.08401 10.521337,-0.29415 0.597958,-1.59939 0.868257,-4.00583 0.728064,-5.24738 l 0.05398,1.97906"
       inkscape:path-effect="#path-effect1629"
       id="path1625"
       d="m -79.018518,122.73778 c -0.06895,0.69704 -0.14085,2.74391 0.427058,3.23858 1.686203,1.46875 8.419055,1.08401 10.521337,-0.29415 0.597958,-1.59939 0.868257,-4.00583 0.728064,-5.24738 l 0.05398,1.97906 m 11.730429,0.32389 c 0.06895,0.69704 0.14085,2.74391 -0.427058,3.23858 -1.686203,1.46875 -8.419055,1.08401 -10.521337,-0.29415 -0.597958,-1.59939 -0.868257,-4.00583 -0.728064,-5.24738 l -0.05398,1.97906"
       style="fill:none;stroke:#82abfe;stroke-width:0.85253;stroke-linecap:round;stroke-linejoin:round;stroke-miterlimit:4;stroke-dasharray:none;stroke-opacity:1" />
    <path
       style="fill:none;stroke:#82abfe;stroke-width:1;stroke-linecap:round;stroke-linejoin:round;stroke-miterlimit:4;stroke-dasharray:none;stroke-opacity:1"
       d="m -73.755427,114.9593 c 1.580947,-0.3353 1.860789,1.04841 4.146443,1.44545 m 8.788243,-1.44545 c -1.580947,-0.3353 -1.860789,1.04841 -4.146443,1.44545"
       id="path1625-7"
       inkscape:path-effect="#path-effect1648"
       inkscape:original-d="m -73.755427,114.9593 c 1.580947,-0.3353 1.860789,1.04841 4.146443,1.44545"
       sodipodi:nodetypes="cc"
       transform="translate(89.977784,-101.96227)" />
    <path
       style="fill:none;stroke:#82abfe;stroke-width:0.93648;stroke-linecap:round;stroke-linejoin:round;stroke-miterlimit:4;stroke-dasharray:none;stroke-opacity:1"
       d="m -69.833287,124.27888 c 2.181207,0.3077 2.631421,-1.19917 2.491228,-2.44072 l 0.05398,0.57573 m 2.545198,1.86499 c -2.181207,0.3077 -2.631421,-1.19917 -2.491228,-2.44072 l -0.05398,0.57573"
       id="path1625-4"
       inkscape:path-effect="#path-effect1667"
       inkscape:original-d="m -69.833287,124.27888 c 2.181207,0.3077 2.631421,-1.19917 2.491228,-2.44072 l 0.05398,0.57573"
       sodipodi:nodetypes="ccc"
       transform="matrix(1.0685884,0,0,1.0670685,94.592964,-100.96394)" />
    <path
       transform="translate(89.977784,-98.420595)"
       sodipodi:nodetypes="csc"
       inkscape:original-d="m -81.743638,124.027 c -0.0014,1.55955 1.290957,4.72312 4.501996,4.44134 1.676666,-0.14714 0,0 2.091286,2.47351"
       inkscape:path-effect="#path-effect1724"
       id="path1625-7-3"
       d="m -81.743638,124.027 c -0.0014,1.55955 1.290957,4.72312 4.501996,4.44134 1.676666,-0.14714 0,0 2.091286,2.47351 M -52.83253,124.027 c 0.0014,1.55955 -1.290957,4.72312 -4.501996,4.44134 -1.676666,-0.14714 0,0 -2.091286,2.47351"
       style="fill:none;stroke:#82abfe;stroke-width:1;stroke-linecap:round;stroke-linejoin:round;stroke-miterlimit:4;stroke-dasharray:none;stroke-opacity:1" />
    <path
       transform="translate(89.977784,-88.129475)"
       sodipodi:nodetypes="cc"
       inkscape:original-d="m -73.1797,126.18598 c 2.20855,1.42929 1.605885,1.01296 1.771569,3.74835"
       inkscape:path-effect="#path-effect1733"
       id="path1625-7-8"
       d="m -73.1797,126.18598 c 2.20855,1.42929 1.605885,1.01296 1.771569,3.74835 m 10.011663,-3.74835 c -2.20855,1.42929 -1.605885,1.01296 -1.771569,3.74835"
       style="fill:none;stroke:#82abfe;stroke-width:1;stroke-linecap:round;stroke-linejoin:round;stroke-miterlimit:4;stroke-dasharray:none;stroke-opacity:1" />
    <path
       style="fill:none;stroke:#82abfe;stroke-width:1;stroke-linecap:round;stroke-linejoin:round;stroke-miterlimit:4;stroke-dasharray:none;stroke-opacity:1"
       d="m -68.4138,126.00782 c -1.073099,2.65018 -4.036362,0.8232 -4.018777,3.4811 m 6.270209,-3.4811 c 1.073099,2.65018 4.036362,0.8232 4.018777,3.4811"
       id="path1040"
       inkscape:path-effect="#path-effect1042"
       inkscape:original-d="m -68.4138,126.00782 c -1.073099,2.65018 -4.036362,0.8232 -4.018777,3.4811"
       sodipodi:nodetypes="cc"
       transform="translate(89.977784,-100.69007)" />
  </g>
</svg>
