<?xml version="1.0" encoding="UTF-8" standalone="no"?>
<svg
   sodipodi:docname="logo.svg"
   inkscape:version="1.1.2 (0a00cf5339, 2022-02-04)"
   id="svg6860"
   version="1.1"
   viewBox="0 0 45.499157 9.4161082"
   height="9.4161081mm"
   width="45.499157mm"
   xmlns:inkscape="http://www.inkscape.org/namespaces/inkscape"
   xmlns:sodipodi="http://sodipodi.sourceforge.net/DTD/sodipodi-0.dtd"
   xmlns="http://www.w3.org/2000/svg"
   xmlns:svg="http://www.w3.org/2000/svg"
   xmlns:rdf="http://www.w3.org/1999/02/22-rdf-syntax-ns#"
   xmlns:cc="http://creativecommons.org/ns#"
   xmlns:dc="http://purl.org/dc/elements/1.1/">
  <defs
     id="defs6854">
    <marker
       inkscape:stockid="Arrow1Sstart"
       orient="auto"
       refY="0"
       refX="0"
       id="marker3563"
       style="overflow:visible"
       inkscape:isstock="true">
      <path
         id="path3561"
         d="M 0,0 5,-5 -12.5,0 5,5 Z"
         style="fill:#000000;fill-opacity:1;fill-rule:evenodd;stroke:#000000;stroke-width:1pt;stroke-opacity:1"
         transform="matrix(0.2,0,0,0.2,1.2,0)" />
    </marker>
    <marker
       inkscape:stockid="Arrow1Sstart"
       orient="auto"
       refY="0"
       refX="0"
       id="marker3553"
       style="overflow:visible"
       inkscape:isstock="true">
      <path
         id="path3551"
         d="M 0,0 5,-5 -12.5,0 5,5 Z"
         style="fill:#000000;fill-opacity:1;fill-rule:evenodd;stroke:#000000;stroke-width:1pt;stroke-opacity:1"
         transform="matrix(0.2,0,0,0.2,1.2,0)" />
    </marker>
    <marker
       inkscape:stockid="Arrow1Sstart"
       orient="auto"
       refY="0"
       refX="0"
       id="marker3543"
       style="overflow:visible"
       inkscape:isstock="true">
      <path
         id="path3541"
         d="M 0,0 5,-5 -12.5,0 5,5 Z"
         style="fill:#000000;fill-opacity:1;fill-rule:evenodd;stroke:#000000;stroke-width:1pt;stroke-opacity:1"
         transform="matrix(0.2,0,0,0.2,1.2,0)" />
    </marker>
    <marker
       inkscape:stockid="Arrow1Sstart"
       orient="auto"
       refY="0"
       refX="0"
       id="marker3533"
       style="overflow:visible"
       inkscape:isstock="true">
      <path
         id="path3531"
         d="M 0,0 5,-5 -12.5,0 5,5 Z"
         style="fill:#000000;fill-opacity:1;fill-rule:evenodd;stroke:#000000;stroke-width:1pt;stroke-opacity:1"
         transform="matrix(0.2,0,0,0.2,1.2,0)" />
    </marker>
    <marker
       inkscape:stockid="Arrow1Sstart"
       orient="auto"
       refY="0"
       refX="0"
       id="marker3523"
       style="overflow:visible"
       inkscape:isstock="true">
      <path
         id="path3521"
         d="M 0,0 5,-5 -12.5,0 5,5 Z"
         style="fill:#000000;fill-opacity:1;fill-rule:evenodd;stroke:#000000;stroke-width:1pt;stroke-opacity:1"
         transform="matrix(0.2,0,0,0.2,1.2,0)" />
    </marker>
    <marker
       inkscape:stockid="Arrow1Sstart"
       orient="auto"
       refY="0"
       refX="0"
       id="marker3513"
       style="overflow:visible"
       inkscape:isstock="true">
      <path
         id="path3511"
         d="M 0,0 5,-5 -12.5,0 5,5 Z"
         style="fill:#000000;fill-opacity:1;fill-rule:evenodd;stroke:#000000;stroke-width:1pt;stroke-opacity:1"
         transform="matrix(0.2,0,0,0.2,1.2,0)" />
    </marker>
    <marker
       inkscape:stockid="Arrow1Sstart"
       orient="auto"
       refY="0"
       refX="0"
       id="marker3503"
       style="overflow:visible"
       inkscape:isstock="true">
      <path
         id="path3501"
         d="M 0,0 5,-5 -12.5,0 5,5 Z"
         style="fill:#000000;fill-opacity:1;fill-rule:evenodd;stroke:#000000;stroke-width:1pt;stroke-opacity:1"
         transform="matrix(0.2,0,0,0.2,1.2,0)" />
    </marker>
    <marker
       inkscape:isstock="true"
       style="overflow:visible"
       id="marker2847"
       refX="0"
       refY="0"
       orient="auto"
       inkscape:stockid="Arrow1Sstart">
      <path
         transform="matrix(0.2,0,0,0.2,1.2,0)"
         style="fill:#000000;fill-opacity:1;fill-rule:evenodd;stroke:#000000;stroke-width:1pt;stroke-opacity:1"
         d="M 0,0 5,-5 -12.5,0 5,5 Z"
         id="path2845" />
    </marker>
    <marker
       inkscape:isstock="true"
       style="overflow:visible"
       id="marker2837"
       refX="0"
       refY="0"
       orient="auto"
       inkscape:stockid="Arrow1Sstart">
      <path
         transform="matrix(0.2,0,0,0.2,1.2,0)"
         style="fill:#000000;fill-opacity:1;fill-rule:evenodd;stroke:#000000;stroke-width:1pt;stroke-opacity:1"
         d="M 0,0 5,-5 -12.5,0 5,5 Z"
         id="path2835" />
    </marker>
    <marker
       inkscape:isstock="true"
       style="overflow:visible"
       id="marker2827"
       refX="0"
       refY="0"
       orient="auto"
       inkscape:stockid="Arrow1Sstart">
      <path
         transform="matrix(0.2,0,0,0.2,1.2,0)"
         style="fill:#000000;fill-opacity:1;fill-rule:evenodd;stroke:#000000;stroke-width:1pt;stroke-opacity:1"
         d="M 0,0 5,-5 -12.5,0 5,5 Z"
         id="path2825" />
    </marker>
    <marker
       inkscape:isstock="true"
       style="overflow:visible"
       id="marker2817"
       refX="0"
       refY="0"
       orient="auto"
       inkscape:stockid="Arrow1Sstart">
      <path
         transform="matrix(0.2,0,0,0.2,1.2,0)"
         style="fill:#000000;fill-opacity:1;fill-rule:evenodd;stroke:#000000;stroke-width:1pt;stroke-opacity:1"
         d="M 0,0 5,-5 -12.5,0 5,5 Z"
         id="path2815" />
    </marker>
    <marker
       inkscape:isstock="true"
       style="overflow:visible"
       id="marker2807"
       refX="0"
       refY="0"
       orient="auto"
       inkscape:stockid="Arrow1Sstart">
      <path
         transform="matrix(0.2,0,0,0.2,1.2,0)"
         style="fill:#000000;fill-opacity:1;fill-rule:evenodd;stroke:#000000;stroke-width:1pt;stroke-opacity:1"
         d="M 0,0 5,-5 -12.5,0 5,5 Z"
         id="path2805" />
    </marker>
    <marker
       inkscape:stockid="Arrow1Sstart"
       orient="auto"
       refY="0"
       refX="0"
       id="marker2241"
       style="overflow:visible"
       inkscape:isstock="true">
      <path
         id="path2239"
         d="M 0,0 5,-5 -12.5,0 5,5 Z"
         style="fill:#000000;fill-opacity:1;fill-rule:evenodd;stroke:#000000;stroke-width:1pt;stroke-opacity:1"
         transform="matrix(0.2,0,0,0.2,1.2,0)" />
    </marker>
    <marker
       inkscape:stockid="Arrow1Sstart"
       orient="auto"
       refY="0"
       refX="0"
       id="marker2231"
       style="overflow:visible"
       inkscape:isstock="true">
      <path
         id="path2229"
         d="M 0,0 5,-5 -12.5,0 5,5 Z"
         style="fill:#000000;fill-opacity:1;fill-rule:evenodd;stroke:#000000;stroke-width:1pt;stroke-opacity:1"
         transform="matrix(0.2,0,0,0.2,1.2,0)" />
    </marker>
    <marker
       inkscape:stockid="Arrow1Sstart"
       orient="auto"
       refY="0"
       refX="0"
       id="marker2221"
       style="overflow:visible"
       inkscape:isstock="true">
      <path
         id="path2219"
         d="M 0,0 5,-5 -12.5,0 5,5 Z"
         style="fill:#000000;fill-opacity:1;fill-rule:evenodd;stroke:#000000;stroke-width:1pt;stroke-opacity:1"
         transform="matrix(0.2,0,0,0.2,1.2,0)" />
    </marker>
    <marker
       inkscape:stockid="Arrow1Sstart"
       orient="auto"
       refY="0"
       refX="0"
       id="marker2211"
       style="overflow:visible"
       inkscape:isstock="true">
      <path
         id="path2209"
         d="M 0,0 5,-5 -12.5,0 5,5 Z"
         style="fill:#000000;fill-opacity:1;fill-rule:evenodd;stroke:#000000;stroke-width:1pt;stroke-opacity:1"
         transform="matrix(0.2,0,0,0.2,1.2,0)" />
    </marker>
    <marker
       inkscape:stockid="Arrow1Sstart"
       orient="auto"
       refY="0"
       refX="0"
       id="marker2201"
       style="overflow:visible"
       inkscape:isstock="true">
      <path
         id="path2199"
         d="M 0,0 5,-5 -12.5,0 5,5 Z"
         style="fill:#000000;fill-opacity:1;fill-rule:evenodd;stroke:#000000;stroke-width:1pt;stroke-opacity:1"
         transform="matrix(0.2,0,0,0.2,1.2,0)" />
    </marker>
    <marker
       inkscape:stockid="Arrow2Mstart"
       orient="auto"
       refY="0"
       refX="0"
       id="marker1931"
       style="overflow:visible"
       inkscape:isstock="true">
      <path
         id="path1929"
         style="fill:#000000;fill-opacity:1;fill-rule:evenodd;stroke:#000000;stroke-width:0.625;stroke-linejoin:round;stroke-opacity:1"
         d="M 8.7185878,4.0337352 -2.2072895,0.01601326 8.7185884,-4.0017078 c -1.7454984,2.3720609 -1.7354408,5.6174519 -6e-7,8.035443 z"
         transform="scale(0.6)" />
    </marker>
    <marker
       inkscape:stockid="Arrow2Mstart"
       orient="auto"
       refY="0"
       refX="0"
       id="marker1921"
       style="overflow:visible"
       inkscape:isstock="true">
      <path
         id="path1919"
         style="fill:#000000;fill-opacity:1;fill-rule:evenodd;stroke:#000000;stroke-width:0.625;stroke-linejoin:round;stroke-opacity:1"
         d="M 8.7185878,4.0337352 -2.2072895,0.01601326 8.7185884,-4.0017078 c -1.7454984,2.3720609 -1.7354408,5.6174519 -6e-7,8.035443 z"
         transform="scale(0.6)" />
    </marker>
    <marker
       inkscape:stockid="Arrow2Mstart"
       orient="auto"
       refY="0"
       refX="0"
       id="marker1911"
       style="overflow:visible"
       inkscape:isstock="true">
      <path
         id="path1909"
         style="fill:#000000;fill-opacity:1;fill-rule:evenodd;stroke:#000000;stroke-width:0.625;stroke-linejoin:round;stroke-opacity:1"
         d="M 8.7185878,4.0337352 -2.2072895,0.01601326 8.7185884,-4.0017078 c -1.7454984,2.3720609 -1.7354408,5.6174519 -6e-7,8.035443 z"
         transform="scale(0.6)" />
    </marker>
    <marker
       inkscape:stockid="Arrow2Mstart"
       orient="auto"
       refY="0"
       refX="0"
       id="marker1901"
       style="overflow:visible"
       inkscape:isstock="true">
      <path
         id="path1899"
         style="fill:#000000;fill-opacity:1;fill-rule:evenodd;stroke:#000000;stroke-width:0.625;stroke-linejoin:round;stroke-opacity:1"
         d="M 8.7185878,4.0337352 -2.2072895,0.01601326 8.7185884,-4.0017078 c -1.7454984,2.3720609 -1.7354408,5.6174519 -6e-7,8.035443 z"
         transform="scale(0.6)" />
    </marker>
    <marker
       inkscape:stockid="Arrow2Mstart"
       orient="auto"
       refY="0"
       refX="0"
       id="marker1891"
       style="overflow:visible"
       inkscape:isstock="true">
      <path
         id="path1889"
         style="fill:#000000;fill-opacity:1;fill-rule:evenodd;stroke:#000000;stroke-width:0.625;stroke-linejoin:round;stroke-opacity:1"
         d="M 8.7185878,4.0337352 -2.2072895,0.01601326 8.7185884,-4.0017078 c -1.7454984,2.3720609 -1.7354408,5.6174519 -6e-7,8.035443 z"
         transform="scale(0.6)" />
    </marker>
    <marker
       inkscape:stockid="Arrow2Mstart"
       orient="auto"
       refY="0"
       refX="0"
       id="marker1881"
       style="overflow:visible"
       inkscape:isstock="true">
      <path
         id="path1879"
         style="fill:#000000;fill-opacity:1;fill-rule:evenodd;stroke:#000000;stroke-width:0.625;stroke-linejoin:round;stroke-opacity:1"
         d="M 8.7185878,4.0337352 -2.2072895,0.01601326 8.7185884,-4.0017078 c -1.7454984,2.3720609 -1.7354408,5.6174519 -6e-7,8.035443 z"
         transform="scale(0.6)" />
    </marker>
    <marker
       inkscape:stockid="Tail"
       orient="auto"
       refY="0"
       refX="0"
       id="marker1503"
       style="overflow:visible"
       inkscape:isstock="true">
      <g
         style="fill:#000000;fill-opacity:1;stroke:#000000;stroke-opacity:1"
         id="g1501"
         transform="scale(-1.2)">
        <path
           id="path1489"
           d="M -3.8048674,-3.9585227 0.54352094,0"
           style="fill:#000000;fill-opacity:1;fill-rule:evenodd;stroke:#000000;stroke-width:0.8;stroke-linecap:round;stroke-opacity:1" />
        <path
           id="path1491"
           d="M -1.2866832,-3.9585227 3.0617053,0"
           style="fill:#000000;fill-opacity:1;fill-rule:evenodd;stroke:#000000;stroke-width:0.8;stroke-linecap:round;stroke-opacity:1" />
        <path
           id="path1493"
           d="M 1.3053582,-3.9585227 5.6537466,0"
           style="fill:#000000;fill-opacity:1;fill-rule:evenodd;stroke:#000000;stroke-width:0.8;stroke-linecap:round;stroke-opacity:1" />
        <path
           id="path1495"
           d="M -3.8048674,4.1775838 0.54352094,0.21974226"
           style="fill:#000000;fill-opacity:1;fill-rule:evenodd;stroke:#000000;stroke-width:0.8;stroke-linecap:round;stroke-opacity:1" />
        <path
           id="path1497"
           d="M -1.2866832,4.1775838 3.0617053,0.21974226"
           style="fill:#000000;fill-opacity:1;fill-rule:evenodd;stroke:#000000;stroke-width:0.8;stroke-linecap:round;stroke-opacity:1" />
        <path
           id="path1499"
           d="M 1.3053582,4.1775838 5.6537466,0.21974226"
           style="fill:#000000;fill-opacity:1;fill-rule:evenodd;stroke:#000000;stroke-width:0.8;stroke-linecap:round;stroke-opacity:1" />
      </g>
    </marker>
    <marker
       inkscape:stockid="Tail"
       orient="auto"
       refY="0"
       refX="0"
       id="marker1463"
       style="overflow:visible"
       inkscape:isstock="true">
      <g
         style="fill:#000000;fill-opacity:1;stroke:#000000;stroke-opacity:1"
         id="g1461"
         transform="scale(-1.2)">
        <path
           id="path1449"
           d="M -3.8048674,-3.9585227 0.54352094,0"
           style="fill:#000000;fill-opacity:1;fill-rule:evenodd;stroke:#000000;stroke-width:0.8;stroke-linecap:round;stroke-opacity:1" />
        <path
           id="path1451"
           d="M -1.2866832,-3.9585227 3.0617053,0"
           style="fill:#000000;fill-opacity:1;fill-rule:evenodd;stroke:#000000;stroke-width:0.8;stroke-linecap:round;stroke-opacity:1" />
        <path
           id="path1453"
           d="M 1.3053582,-3.9585227 5.6537466,0"
           style="fill:#000000;fill-opacity:1;fill-rule:evenodd;stroke:#000000;stroke-width:0.8;stroke-linecap:round;stroke-opacity:1" />
        <path
           id="path1455"
           d="M -3.8048674,4.1775838 0.54352094,0.21974226"
           style="fill:#000000;fill-opacity:1;fill-rule:evenodd;stroke:#000000;stroke-width:0.8;stroke-linecap:round;stroke-opacity:1" />
        <path
           id="path1457"
           d="M -1.2866832,4.1775838 3.0617053,0.21974226"
           style="fill:#000000;fill-opacity:1;fill-rule:evenodd;stroke:#000000;stroke-width:0.8;stroke-linecap:round;stroke-opacity:1" />
        <path
           id="path1459"
           d="M 1.3053582,4.1775838 5.6537466,0.21974226"
           style="fill:#000000;fill-opacity:1;fill-rule:evenodd;stroke:#000000;stroke-width:0.8;stroke-linecap:round;stroke-opacity:1" />
      </g>
    </marker>
    <marker
       inkscape:stockid="Tail"
       orient="auto"
       refY="0"
       refX="0"
       id="marker1423"
       style="overflow:visible"
       inkscape:isstock="true">
      <g
         style="fill:#000000;fill-opacity:1;stroke:#000000;stroke-opacity:1"
         id="g1421"
         transform="scale(-1.2)">
        <path
           id="path1409"
           d="M -3.8048674,-3.9585227 0.54352094,0"
           style="fill:#000000;fill-opacity:1;fill-rule:evenodd;stroke:#000000;stroke-width:0.8;stroke-linecap:round;stroke-opacity:1" />
        <path
           id="path1411"
           d="M -1.2866832,-3.9585227 3.0617053,0"
           style="fill:#000000;fill-opacity:1;fill-rule:evenodd;stroke:#000000;stroke-width:0.8;stroke-linecap:round;stroke-opacity:1" />
        <path
           id="path1413"
           d="M 1.3053582,-3.9585227 5.6537466,0"
           style="fill:#000000;fill-opacity:1;fill-rule:evenodd;stroke:#000000;stroke-width:0.8;stroke-linecap:round;stroke-opacity:1" />
        <path
           id="path1415"
           d="M -3.8048674,4.1775838 0.54352094,0.21974226"
           style="fill:#000000;fill-opacity:1;fill-rule:evenodd;stroke:#000000;stroke-width:0.8;stroke-linecap:round;stroke-opacity:1" />
        <path
           id="path1417"
           d="M -1.2866832,4.1775838 3.0617053,0.21974226"
           style="fill:#000000;fill-opacity:1;fill-rule:evenodd;stroke:#000000;stroke-width:0.8;stroke-linecap:round;stroke-opacity:1" />
        <path
           id="path1419"
           d="M 1.3053582,4.1775838 5.6537466,0.21974226"
           style="fill:#000000;fill-opacity:1;fill-rule:evenodd;stroke:#000000;stroke-width:0.8;stroke-linecap:round;stroke-opacity:1" />
      </g>
    </marker>
    <marker
       inkscape:stockid="Tail"
       orient="auto"
       refY="0"
       refX="0"
       id="marker1383"
       style="overflow:visible"
       inkscape:isstock="true">
      <g
         style="fill:#000000;fill-opacity:1;stroke:#000000;stroke-opacity:1"
         id="g1381"
         transform="scale(-1.2)">
        <path
           id="path1369"
           d="M -3.8048674,-3.9585227 0.54352094,0"
           style="fill:#000000;fill-opacity:1;fill-rule:evenodd;stroke:#000000;stroke-width:0.8;stroke-linecap:round;stroke-opacity:1" />
        <path
           id="path1371"
           d="M -1.2866832,-3.9585227 3.0617053,0"
           style="fill:#000000;fill-opacity:1;fill-rule:evenodd;stroke:#000000;stroke-width:0.8;stroke-linecap:round;stroke-opacity:1" />
        <path
           id="path1373"
           d="M 1.3053582,-3.9585227 5.6537466,0"
           style="fill:#000000;fill-opacity:1;fill-rule:evenodd;stroke:#000000;stroke-width:0.8;stroke-linecap:round;stroke-opacity:1" />
        <path
           id="path1375"
           d="M -3.8048674,4.1775838 0.54352094,0.21974226"
           style="fill:#000000;fill-opacity:1;fill-rule:evenodd;stroke:#000000;stroke-width:0.8;stroke-linecap:round;stroke-opacity:1" />
        <path
           id="path1377"
           d="M -1.2866832,4.1775838 3.0617053,0.21974226"
           style="fill:#000000;fill-opacity:1;fill-rule:evenodd;stroke:#000000;stroke-width:0.8;stroke-linecap:round;stroke-opacity:1" />
        <path
           id="path1379"
           d="M 1.3053582,4.1775838 5.6537466,0.21974226"
           style="fill:#000000;fill-opacity:1;fill-rule:evenodd;stroke:#000000;stroke-width:0.8;stroke-linecap:round;stroke-opacity:1" />
      </g>
    </marker>
    <marker
       inkscape:stockid="Tail"
       orient="auto"
       refY="0"
       refX="0"
       id="marker1343"
       style="overflow:visible"
       inkscape:isstock="true">
      <g
         style="fill:#000000;fill-opacity:1;stroke:#000000;stroke-opacity:1"
         id="g1341"
         transform="scale(-1.2)">
        <path
           id="path1329"
           d="M -3.8048674,-3.9585227 0.54352094,0"
           style="fill:#000000;fill-opacity:1;fill-rule:evenodd;stroke:#000000;stroke-width:0.8;stroke-linecap:round;stroke-opacity:1" />
        <path
           id="path1331"
           d="M -1.2866832,-3.9585227 3.0617053,0"
           style="fill:#000000;fill-opacity:1;fill-rule:evenodd;stroke:#000000;stroke-width:0.8;stroke-linecap:round;stroke-opacity:1" />
        <path
           id="path1333"
           d="M 1.3053582,-3.9585227 5.6537466,0"
           style="fill:#000000;fill-opacity:1;fill-rule:evenodd;stroke:#000000;stroke-width:0.8;stroke-linecap:round;stroke-opacity:1" />
        <path
           id="path1335"
           d="M -3.8048674,4.1775838 0.54352094,0.21974226"
           style="fill:#000000;fill-opacity:1;fill-rule:evenodd;stroke:#000000;stroke-width:0.8;stroke-linecap:round;stroke-opacity:1" />
        <path
           id="path1337"
           d="M -1.2866832,4.1775838 3.0617053,0.21974226"
           style="fill:#000000;fill-opacity:1;fill-rule:evenodd;stroke:#000000;stroke-width:0.8;stroke-linecap:round;stroke-opacity:1" />
        <path
           id="path1339"
           d="M 1.3053582,4.1775838 5.6537466,0.21974226"
           style="fill:#000000;fill-opacity:1;fill-rule:evenodd;stroke:#000000;stroke-width:0.8;stroke-linecap:round;stroke-opacity:1" />
      </g>
    </marker>
    <marker
       inkscape:stockid="Tail"
       orient="auto"
       refY="0"
       refX="0"
       id="marker1303"
       style="overflow:visible"
       inkscape:isstock="true">
      <g
         style="fill:#000000;fill-opacity:1;stroke:#000000;stroke-opacity:1"
         id="g1301"
         transform="scale(-1.2)">
        <path
           id="path1289"
           d="M -3.8048674,-3.9585227 0.54352094,0"
           style="fill:#000000;fill-opacity:1;fill-rule:evenodd;stroke:#000000;stroke-width:0.8;stroke-linecap:round;stroke-opacity:1" />
        <path
           id="path1291"
           d="M -1.2866832,-3.9585227 3.0617053,0"
           style="fill:#000000;fill-opacity:1;fill-rule:evenodd;stroke:#000000;stroke-width:0.8;stroke-linecap:round;stroke-opacity:1" />
        <path
           id="path1293"
           d="M 1.3053582,-3.9585227 5.6537466,0"
           style="fill:#000000;fill-opacity:1;fill-rule:evenodd;stroke:#000000;stroke-width:0.8;stroke-linecap:round;stroke-opacity:1" />
        <path
           id="path1295"
           d="M -3.8048674,4.1775838 0.54352094,0.21974226"
           style="fill:#000000;fill-opacity:1;fill-rule:evenodd;stroke:#000000;stroke-width:0.8;stroke-linecap:round;stroke-opacity:1" />
        <path
           id="path1297"
           d="M -1.2866832,4.1775838 3.0617053,0.21974226"
           style="fill:#000000;fill-opacity:1;fill-rule:evenodd;stroke:#000000;stroke-width:0.8;stroke-linecap:round;stroke-opacity:1" />
        <path
           id="path1299"
           d="M 1.3053582,4.1775838 5.6537466,0.21974226"
           style="fill:#000000;fill-opacity:1;fill-rule:evenodd;stroke:#000000;stroke-width:0.8;stroke-linecap:round;stroke-opacity:1" />
      </g>
    </marker>
    <marker
       inkscape:stockid="Arrow1Lend"
       orient="auto"
       refY="0"
       refX="0"
       id="marker1195"
       style="overflow:visible"
       inkscape:isstock="true">
      <path
         id="path1193"
         d="M 0,0 5,-5 -12.5,0 5,5 Z"
         style="fill:#000000;fill-opacity:1;fill-rule:evenodd;stroke:#000000;stroke-width:1pt;stroke-opacity:1"
         transform="matrix(-0.8,0,0,-0.8,-10,0)" />
    </marker>
    <marker
       inkscape:stockid="Arrow1Lend"
       orient="auto"
       refY="0"
       refX="0"
       id="marker1185"
       style="overflow:visible"
       inkscape:isstock="true">
      <path
         id="path1183"
         d="M 0,0 5,-5 -12.5,0 5,5 Z"
         style="fill:#000000;fill-opacity:1;fill-rule:evenodd;stroke:#000000;stroke-width:1pt;stroke-opacity:1"
         transform="matrix(-0.8,0,0,-0.8,-10,0)" />
    </marker>
    <marker
       inkscape:stockid="Arrow1Lend"
       orient="auto"
       refY="0"
       refX="0"
       id="marker1175"
       style="overflow:visible"
       inkscape:isstock="true">
      <path
         id="path1173"
         d="M 0,0 5,-5 -12.5,0 5,5 Z"
         style="fill:#000000;fill-opacity:1;fill-rule:evenodd;stroke:#000000;stroke-width:1pt;stroke-opacity:1"
         transform="matrix(-0.8,0,0,-0.8,-10,0)" />
    </marker>
    <marker
       inkscape:stockid="Arrow1Lend"
       orient="auto"
       refY="0"
       refX="0"
       id="marker1165"
       style="overflow:visible"
       inkscape:isstock="true">
      <path
         id="path1163"
         d="M 0,0 5,-5 -12.5,0 5,5 Z"
         style="fill:#000000;fill-opacity:1;fill-rule:evenodd;stroke:#000000;stroke-width:1pt;stroke-opacity:1"
         transform="matrix(-0.8,0,0,-0.8,-10,0)" />
    </marker>
    <marker
       inkscape:stockid="Arrow1Lend"
       orient="auto"
       refY="0"
       refX="0"
       id="marker1155"
       style="overflow:visible"
       inkscape:isstock="true">
      <path
         id="path1153"
         d="M 0,0 5,-5 -12.5,0 5,5 Z"
         style="fill:#000000;fill-opacity:1;fill-rule:evenodd;stroke:#000000;stroke-width:1pt;stroke-opacity:1"
         transform="matrix(-0.8,0,0,-0.8,-10,0)" />
    </marker>
    <marker
       inkscape:stockid="Arrow1Lend"
       orient="auto"
       refY="0"
       refX="0"
       id="marker1145"
       style="overflow:visible"
       inkscape:isstock="true">
      <path
         id="path1143"
         d="M 0,0 5,-5 -12.5,0 5,5 Z"
         style="fill:#000000;fill-opacity:1;fill-rule:evenodd;stroke:#000000;stroke-width:1pt;stroke-opacity:1"
         transform="matrix(-0.8,0,0,-0.8,-10,0)" />
    </marker>
    <inkscape:path-effect
       split_items="false"
       oposite_fuse="false"
       fuse_paths="false"
       discard_orig_path="false"
       mode="free"
       lpeversion="1"
       is_visible="true"
       id="path-effect1686"
       center_point="-67.288084,116.76461"
       end_point="-67.288084,122.41394"
       start_point="-67.288084,111.11529"
       effect="mirror_symmetry" />
    <inkscape:path-effect
       split_items="false"
       oposite_fuse="false"
       fuse_paths="false"
       discard_orig_path="false"
       mode="free"
       lpeversion="1"
       is_visible="true"
       id="path-effect1629"
       center_point="-67.288084,116.76461"
       end_point="-67.288084,122.41394"
       start_point="-67.288084,111.11529"
       effect="mirror_symmetry" />
    <inkscape:path-effect
       effect="mirror_symmetry"
       start_point="-67.288084,111.11529"
       end_point="-67.288084,122.41394"
       center_point="-67.288084,116.76461"
       id="path-effect1648"
       is_visible="true"
       lpeversion="1"
       mode="free"
       discard_orig_path="false"
       fuse_paths="false"
       oposite_fuse="false"
       split_items="false" />
    <inkscape:path-effect
       effect="mirror_symmetry"
       start_point="-67.288084,111.11529"
       end_point="-67.288084,122.41394"
       center_point="-67.288084,116.76461"
       id="path-effect1667"
       is_visible="true"
       lpeversion="1"
       mode="free"
       discard_orig_path="false"
       fuse_paths="false"
       oposite_fuse="false"
       split_items="false" />
    <inkscape:path-effect
       split_items="false"
       oposite_fuse="false"
       fuse_paths="false"
       discard_orig_path="false"
       mode="free"
       lpeversion="1"
       is_visible="true"
       id="path-effect1724"
       center_point="-67.288084,116.76461"
       end_point="-67.288084,122.41394"
       start_point="-67.288084,111.11529"
       effect="mirror_symmetry" />
    <inkscape:path-effect
       split_items="false"
       oposite_fuse="false"
       fuse_paths="false"
       discard_orig_path="false"
       mode="free"
       lpeversion="1"
       is_visible="true"
       id="path-effect1733"
       center_point="-67.288084,116.76461"
       end_point="-67.288084,122.41394"
       start_point="-67.288084,111.11529"
       effect="mirror_symmetry" />
    <inkscape:path-effect
       effect="mirror_symmetry"
       start_point="-67.288084,111.11529"
       end_point="-67.288084,122.41394"
       center_point="-67.288084,116.76461"
       id="path-effect1042"
       is_visible="true"
       lpeversion="1"
       mode="free"
       discard_orig_path="false"
       fuse_paths="false"
       oposite_fuse="false"
       split_items="false" />
    <inkscape:path-effect
       effect="mirror_symmetry"
       start_point="118.03395,6.5030023"
       end_point="118.03395,43.383046"
       center_point="118.03395,24.943024"
       id="path-effect2167"
       is_visible="true"
       lpeversion="1"
       mode="free"
       discard_orig_path="false"
       fuse_paths="false"
       oposite_fuse="false"
       split_items="false" />
    <inkscape:path-effect
       split_items="true"
       oposite_fuse="true"
       fuse_paths="false"
       discard_orig_path="false"
       mode="free"
       lpeversion="1"
       is_visible="true"
       id="path-effect2190"
       center_point="118.03395,24.943024"
       end_point="118.03395,43.383046"
       start_point="118.03395,6.5030023"
       effect="mirror_symmetry" />
    <inkscape:path-effect
       effect="mirror_symmetry"
       start_point="118.03395,6.5030023"
       end_point="118.03395,43.383046"
       center_point="118.03395,24.943024"
       id="path-effect2222"
       is_visible="true"
       lpeversion="1"
       mode="free"
       discard_orig_path="false"
       fuse_paths="false"
       oposite_fuse="true"
       split_items="false" />
  </defs>
  <sodipodi:namedview
     inkscape:window-maximized="1"
     inkscape:window-y="39"
     inkscape:window-x="7"
     inkscape:window-height="1390"
     inkscape:window-width="3422"
     showgrid="false"
     inkscape:document-rotation="0"
     inkscape:current-layer="layer1"
     inkscape:document-units="mm"
     inkscape:cy="41.542523"
     inkscape:cx="90.534921"
     inkscape:zoom="3.959798"
     inkscape:pageshadow="2"
     inkscape:pageopacity="0.0"
     borderopacity="1.0"
     bordercolor="#666666"
     pagecolor="#ffffff"
     id="base"
     inkscape:pagecheckerboard="0" />
  <metadata
     id="metadata6857">
    <rdf:RDF>
      <cc:Work
         rdf:about="">
        <dc:format>image/svg+xml</dc:format>
        <dc:type
           rdf:resource="http://purl.org/dc/dcmitype/StillImage" />
        <dc:title />
      </cc:Work>
    </rdf:RDF>
  </metadata>
  <g
     id="layer1"
     inkscape:groupmode="layer"
     inkscape:label="Layer 1"
     transform="translate(-0.15000001,-17.121615)">
    <path
       id="path865"
       style="font-style:normal;font-variant:normal;font-weight:300;font-stretch:normal;font-size:20.8821px;line-height:1.25;font-family:Infynyte;-inkscape-font-specification:'Infynyte Light';text-align:center;letter-spacing:1.08744px;text-anchor:middle;stroke:#000000;stroke-width:0.7;stroke-linecap:round;stroke-miterlimit:4;stroke-dasharray:none"
       d="m 6.4464405,17.471615 c -0.094956,0 -0.1780374,0.07997 -0.1780374,0.171351 v 3.986792 H 0.85607369 v -3.986792 c 0,-0.09139 -0.071214,-0.171351 -0.17803744,-0.171351 C 0.58308239,17.471615 0.5,17.551583 0.5,17.642966 v 8.373405 c 0,0.09139 0.0830827,0.171352 0.17803625,0.171352 0.10682355,0 0.17803744,-0.07996 0.17803744,-0.171352 V 21.972462 H 6.2684031 v 4.043909 c 0,0.09139 0.083082,0.171352 0.1780374,0.171352 0.1068218,0 0.1780358,-0.07996 0.1780358,-0.171352 v -8.373405 c 0,-0.09139 -0.071214,-0.171351 -0.1780358,-0.171351 z" />
    <path
       id="path867"
       style="font-style:normal;font-variant:normal;font-weight:300;font-stretch:normal;font-size:20.8821px;line-height:1.25;font-family:Infynyte;-inkscape-font-specification:'Infynyte Light';text-align:center;letter-spacing:1.08744px;text-anchor:middle;stroke:#000000;stroke-width:0.7;stroke-linecap:round;stroke-miterlimit:4;stroke-dasharray:none"
       d="m 14.366828,17.825742 c 0.106824,0 0.178042,-0.07997 0.178042,-0.182776 0,-0.09139 -0.07121,-0.171351 -0.178042,-0.171351 H 8.5984256 c -0.09495,0 -0.1780359,0.07997 -0.1780359,0.171351 v 8.316287 c 0,0.09138 0.08309,0.171352 0.1780359,0.171352 h 5.7684024 c 0.106824,0 0.178042,-0.07996 0.178042,-0.171352 0,-0.102811 -0.07121,-0.171352 -0.178042,-0.171352 H 8.7764679 v -3.815439 h 4.1541981 c 0.09495,0 0.178034,-0.07997 0.178034,-0.171352 0,-0.09139 -0.08308,-0.171352 -0.178034,-0.171352 H 8.7764679 v -3.804016 z" />
    <path
       id="path869"
       style="font-style:normal;font-variant:normal;font-weight:300;font-stretch:normal;font-size:20.8821px;line-height:1.25;font-family:Infynyte;-inkscape-font-specification:'Infynyte Light';text-align:center;letter-spacing:1.08744px;text-anchor:middle;stroke:#000000;stroke-width:0.7;stroke-linecap:round;stroke-miterlimit:4;stroke-dasharray:none"
       d="m 29.925583,25.787901 h -5.566632 v -8.133512 c 0,-0.09139 -0.08308,-0.171351 -0.189903,-0.171351 -0.09496,0 -0.178038,0.07997 -0.178038,0.171351 v 8.304864 c 0,0.10281 0.08308,0.182775 0.178038,0.182775 h 5.756535 c 0.106823,0 0.189904,-0.07996 0.189904,-0.182775 0,-0.09139 -0.08308,-0.171352 -0.189904,-0.171352 z" />
    <path
       id="path871"
       style="font-style:normal;font-variant:normal;font-weight:300;font-stretch:normal;font-size:20.8821px;line-height:1.25;font-family:Infynyte;-inkscape-font-specification:'Infynyte Light';text-align:center;letter-spacing:1.08744px;text-anchor:middle;stroke:#000000;stroke-width:0.7;stroke-linecap:round;stroke-miterlimit:4;stroke-dasharray:none"
       d="m 20.672701,17.471615 h -2.896069 c -0.890188,0 -1.614206,0.708255 -1.614206,1.565014 v 6.979742 c 0,0.102811 0.08309,0.171352 0.178036,0.171352 0.09496,0 0.178042,-0.06854 0.178042,-0.171352 v -2.650246 h 5.412324 v 2.650246 c 0,0.102811 0.08309,0.171352 0.178037,0.171352 0.09496,0 0.178042,-0.06854 0.178042,-0.171352 v -6.979742 c 0,-0.856759 -0.724018,-1.565014 -1.614206,-1.565014 z m 1.258127,5.551806 h -5.412324 v -3.986792 c 0,-0.673985 0.569718,-1.22231 1.258128,-1.22231 h 2.896069 c 0.68841,0 1.258127,0.548325 1.258127,1.22231 z" />
    <path
       id="path873"
       style="font-style:normal;font-variant:normal;font-weight:300;font-stretch:normal;font-size:20.8821px;line-height:1.25;font-family:Infynyte;-inkscape-font-specification:'Infynyte Light';text-align:center;letter-spacing:1.08744px;text-anchor:middle;stroke:#000000;stroke-width:0.7;stroke-linecap:round;stroke-miterlimit:4;stroke-dasharray:none"
       d="m 32.993489,17.814319 h 2.872331 c 0.700277,0 1.258128,0.548325 1.258128,1.210887 0,0.102812 0.08309,0.171352 0.178036,0.171352 0.106822,0 0.18991,-0.06854 0.18991,-0.171352 0,-0.856759 -0.735888,-1.553591 -1.626074,-1.553591 h -2.872331 c -0.902055,0 -1.626074,0.696832 -1.626074,1.553591 v 1.38224 c 0,0.868184 0.724019,1.565016 1.626074,1.565016 h 2.872331 c 0.700277,0 1.258128,0.536903 1.258128,1.210888 v 1.382239 c 0,0.673985 -0.557851,1.210889 -1.258128,1.210889 h -2.872331 c -0.700278,0 -1.258128,-0.536904 -1.258128,-1.210889 0,-0.09138 -0.08309,-0.171352 -0.18991,-0.171352 -0.09495,0 -0.178036,0.07996 -0.178036,0.171352 0,0.856762 0.724019,1.565016 1.626074,1.565016 h 2.872331 c 0.890186,0 1.626074,-0.708254 1.626074,-1.565016 V 23.18335 c 0,-0.856761 -0.735888,-1.553592 -1.626074,-1.553592 h -2.872331 c -0.700278,0 -1.258128,-0.548327 -1.258128,-1.222312 v -1.38224 c 0,-0.662562 0.55785,-1.210887 1.258128,-1.210887 z" />
    <path
       id="path875"
       style="font-style:normal;font-variant:normal;font-weight:300;font-stretch:normal;font-size:20.8821px;line-height:1.25;font-family:Infynyte;-inkscape-font-specification:'Infynyte Light';text-align:center;letter-spacing:1.08744px;text-anchor:middle;stroke:#000000;stroke-width:0.7;stroke-linecap:round;stroke-miterlimit:4;stroke-dasharray:none"
       d="m 45.056443,17.825742 c 0.106823,0 0.178041,-0.07997 0.178041,-0.182776 0,-0.09139 -0.07122,-0.171351 -0.178041,-0.171351 h -5.768397 c -0.09496,0 -0.178042,0.07997 -0.178042,0.171351 v 8.316287 c 0,0.09138 0.08309,0.171352 0.178042,0.171352 h 5.768397 c 0.106823,0 0.178041,-0.07996 0.178041,-0.171352 0,-0.102811 -0.07122,-0.171352 -0.178041,-0.171352 h -5.590361 v -3.815439 h 4.154197 c 0.09495,0 0.178037,-0.07997 0.178037,-0.171352 0,-0.09139 -0.08308,-0.171352 -0.178037,-0.171352 h -4.154197 v -3.804016 z" />
  </g>
</svg>
